<?xml version="1.0" encoding="utf-8"?>
<!-- Generator: Adobe Illustrator 22.1.0, SVG Export Plug-In . SVG Version: 6.00 Build 0)  -->
<svg version="1.1" id="Слой_1" xmlns="http://www.w3.org/2000/svg" xmlns:xlink="http://www.w3.org/1999/xlink" x="0px" y="0px"
	 viewBox="0 0 800 610" style="enable-background:new 0 0 800 610;" xml:space="preserve">
<style type="text/css">
	.st0{fill:#730014;}
</style>
<g>
	<path class="st0" d="M800,610L659.2,470.8c43.4-52.3,71.2-117.8,75.9-189.4c5.7-87.1-22.4-167.7-72.5-230
		c-15.2-19-32.5-36.2-51.5-51.4l-51.8,51.8c19.5,14.7,36.8,32,51.4,51.4c37.1,49.2,57.2,112,51.2,179.4
		c-4.5,51.1-24.2,98.1-54.3,136.5L450.8,261.9l90.6-89.9l-51.4-51.5h0l-90.4,89.8l-0.1-0.1l-26,25.9l-116,115.2l51.4,51.5l77.3-76.8
		l13.3-12.4l155.6,156c-36.8,26.7-80.9,44-128.4,48.2c-67.5,6-130.3-14.1-179.5-51.2c-19.5-14.7-36.8-32-51.4-51.4l-51.8,51.8L0,610
		h104l91.6-91.7c62.3,50,142.9,78.2,230.1,72.5c67.9-4.5,130.5-29.7,181.4-69.3l90.3,88.5H800z"/>
</g>
</svg>
